<?xml version="1.0" encoding="utf-8"?>
<!-- Generator: Adobe Illustrator 16.0.4, SVG Export Plug-In . SVG Version: 6.00 Build 0)  -->
<!DOCTYPE svg PUBLIC "-//W3C//DTD SVG 1.1//EN" "http://www.w3.org/Graphics/SVG/1.1/DTD/svg11.dtd">
<svg version="1.1" id="Layer_1" xmlns="http://www.w3.org/2000/svg" xmlns:xlink="http://www.w3.org/1999/xlink" x="0px" y="0px"
	 width="500px" height="500px" viewBox="0 0 500 500" enable-background="new 0 0 500 500" xml:space="preserve">
<path d="M456.183,393.817v62.365H43.817v-62.365H456.183 M500,350H0v150h500V350L500,350z M456.183,218.818v62.365H43.818v-62.365
	H456.183 M500,175H0v150h500V175L500,175z M0,0v150h500V0H0z M284.874,140.43L250,105.556l-34.874,34.874l-31.806-31.806
	l34.874-34.875l-34.875-34.874l31.806-31.806L250,41.944l34.875-34.875l31.806,31.806L281.807,73.75l34.873,34.875L284.874,140.43z"
	/>
</svg>
