<?xml version="1.0" encoding="utf-8"?>
<!-- Generator: Adobe Illustrator 14.0.0, SVG Export Plug-In . SVG Version: 6.00 Build 43363)  -->
<!DOCTYPE svg PUBLIC "-//W3C//DTD SVG 1.1//EN" "http://www.w3.org/Graphics/SVG/1.1/DTD/svg11.dtd">
<svg version="1.1" id="Layer_1" xmlns="http://www.w3.org/2000/svg" xmlns:xlink="http://www.w3.org/1999/xlink" x="0px" y="0px"
	 width="500px" height="500px" viewBox="0 0 500 500" enable-background="new 0 0 500 500" xml:space="preserve">
<path d="M173,0.23v122.5h327V0.23H173z M362.5,397.73v82.5h-287v-82.5H362.5 M382.5,377.73h-327v122.5h327V377.73L382.5,377.73z
	 M362.5,208.98v82.5h-287v-82.5H362.5 M382.5,188.98h-327v122.5h327V188.98L382.5,188.98z M103.404,125.992l22.588-22.588
	L85.585,62.996l40.407-40.408L103.404,0L62.996,40.407L22.588,0L0,22.588l40.408,40.408L0,103.403l22.588,22.588l40.408-40.408
	L103.404,125.992z"/>
</svg>
