<?xml version="1.0" encoding="utf-8"?>
<!-- Generator: Adobe Illustrator 16.0.4, SVG Export Plug-In . SVG Version: 6.00 Build 0)  -->
<!DOCTYPE svg PUBLIC "-//W3C//DTD SVG 1.1//EN" "http://www.w3.org/Graphics/SVG/1.1/DTD/svg11.dtd">
<svg version="1.1" id="Layer_1" xmlns="http://www.w3.org/2000/svg" xmlns:xlink="http://www.w3.org/1999/xlink" x="0px" y="0px"
	 width="99px" height="95px" viewBox="0 0 99 95" enable-background="new 0 0 99 95" xml:space="preserve">
<path fill="#EFF1F4" d="M99,89c0,3.312-2.688,6-6,6H6c-3.313,0-6-2.688-6-6V6c0-3.313,2.687-6,6-6h87c3.312,0,6,2.687,6,6V89z"/>
<path fill="#CBCED3" d="M85.75,20.237c0,1.657-1.343,3-3,3H17c-1.657,0-3-1.343-3-3v-0.275c0-1.657,1.343-3,3-3h65.75
	c1.657,0,3,1.343,3,3V20.237z"/>
<path fill="#CBCED3" d="M85.75,42.039c0,1.657-1.343,3-3,3h-40c-1.657,0-3-1.343-3-3v-11.75c0-1.657,1.343-3,3-3h40
	c1.657,0,3,1.343,3,3V42.039z"/>
<polygon fill="#CBCED3" points="25.92,39.581 19.59,33.251 32.25,33.251 "/>
<path fill="#CBCED3" d="M85.75,53.237c0,1.657-1.343,3-3,3H17c-1.657,0-3-1.343-3-3v-0.275c0-1.657,1.343-3,3-3h65.75
	c1.657,0,3,1.343,3,3V53.237z"/>
<path fill="#CBCED3" d="M85.75,75.039c0,1.656-1.343,3-3,3h-40c-1.657,0-3-1.344-3-3v-11.75c0-1.656,1.343-3,3-3h40
	c1.657,0,3,1.344,3,3V75.039z"/>
<polygon fill="#CBCED3" points="25.92,72.581 19.59,66.251 32.25,66.251 "/>
</svg>
