<?xml version="1.0" encoding="utf-8"?>
<!-- Generator: Adobe Illustrator 16.0.4, SVG Export Plug-In . SVG Version: 6.00 Build 0)  -->
<!DOCTYPE svg PUBLIC "-//W3C//DTD SVG 1.1//EN" "http://www.w3.org/Graphics/SVG/1.1/DTD/svg11.dtd">
<svg version="1.1" id="Layer_1" xmlns="http://www.w3.org/2000/svg" xmlns:xlink="http://www.w3.org/1999/xlink" x="0px" y="0px"
	 width="99px" height="95px" viewBox="0 0 99 95" enable-background="new 0 0 99 95" xml:space="preserve">
<path fill="#EFF1F4" d="M99,89c0,3.312-2.688,6-6,6H6c-3.313,0-6-2.688-6-6V6c0-3.313,2.687-6,6-6h87c3.312,0,6,2.687,6,6V89z"/>
<path fill="#CBCED3" d="M-133.5-20.25c0,0.276-0.224,0.5-0.5,0.5l0,0c-0.276,0-0.5-0.224-0.5-0.5l0,0c0-0.276,0.224-0.5,0.5-0.5l0,0
	C-133.724-20.75-133.5-20.526-133.5-20.25L-133.5-20.25z"/>
<path fill="#CBCED3" d="M15.753,35.312c0,1.275-1.034,2.309-2.309,2.309H8.059c-1.275,0-2.309-1.034-2.309-2.309v-5.386
	c0-1.275,1.034-2.309,2.309-2.309h5.386c1.275,0,2.309,1.034,2.309,2.309V35.312z"/>
<path fill="#CBCED3" d="M28.69,35.312c0,1.275-1.034,2.309-2.309,2.309h-5.386c-1.275,0-2.309-1.034-2.309-2.309v-5.386
	c0-1.275,1.034-2.309,2.309-2.309h5.386c1.275,0,2.309,1.034,2.309,2.309V35.312z"/>
<path fill="#CBCED3" d="M41.627,35.312c0,1.275-1.034,2.309-2.308,2.309h-5.387c-1.274,0-2.308-1.034-2.308-2.309v-5.386
	c0-1.275,1.034-2.309,2.308-2.309h5.387c1.274,0,2.308,1.034,2.308,2.309V35.312z"/>
<path fill="#CBCED3" d="M54.564,35.312c0,1.275-1.034,2.309-2.309,2.309h-5.387c-1.274,0-2.309-1.034-2.309-2.309v-5.386
	c0-1.275,1.034-2.309,2.309-2.309h5.387c1.274,0,2.309,1.034,2.309,2.309V35.312z"/>
<path fill="#CBCED3" d="M67.502,35.312c0,1.275-1.034,2.309-2.309,2.309h-5.387c-1.274,0-2.309-1.034-2.309-2.309v-5.386
	c0-1.275,1.034-2.309,2.309-2.309h5.387c1.274,0,2.309,1.034,2.309,2.309V35.312z"/>
<path fill="#CBCED3" d="M80.438,35.312c0,1.275-1.034,2.309-2.309,2.309h-5.387c-1.274,0-2.309-1.034-2.309-2.309v-5.386
	c0-1.275,1.034-2.309,2.309-2.309h5.387c1.274,0,2.309,1.034,2.309,2.309V35.312z"/>
<path fill="#CBCED3" d="M93.375,35.312c0,1.275-1.034,2.309-2.309,2.309H85.68c-1.274,0-2.308-1.034-2.308-2.309v-5.386
	c0-1.275,1.033-2.309,2.308-2.309h5.387c1.274,0,2.309,1.034,2.309,2.309V35.312z"/>
<path fill="#CBCED3" d="M15.753,22.943c0,0.509-1.034,0.922-2.309,0.922H8.059c-1.275,0-2.309-0.413-2.309-0.922v-2.152
	c0-0.509,1.034-0.922,2.309-0.922h5.386c1.275,0,2.309,0.413,2.309,0.922V22.943z"/>
<path fill="#CBCED3" d="M28.69,22.943c0,0.509-1.034,0.922-2.309,0.922h-5.386c-1.275,0-2.309-0.413-2.309-0.922v-2.152
	c0-0.509,1.034-0.922,2.309-0.922h5.386c1.275,0,2.309,0.413,2.309,0.922V22.943z"/>
<path fill="#CBCED3" d="M41.627,22.943c0,0.509-1.034,0.922-2.308,0.922h-5.387c-1.274,0-2.308-0.413-2.308-0.922v-2.152
	c0-0.509,1.034-0.922,2.308-0.922h5.387c1.274,0,2.308,0.413,2.308,0.922V22.943z"/>
<path fill="#CBCED3" d="M54.564,22.943c0,0.509-1.034,0.922-2.309,0.922h-5.387c-1.274,0-2.309-0.413-2.309-0.922v-2.152
	c0-0.509,1.034-0.922,2.309-0.922h5.387c1.274,0,2.309,0.413,2.309,0.922V22.943z"/>
<path fill="#CBCED3" d="M67.502,22.943c0,0.509-1.034,0.922-2.309,0.922h-5.387c-1.274,0-2.309-0.413-2.309-0.922v-2.152
	c0-0.509,1.034-0.922,2.309-0.922h5.387c1.274,0,2.309,0.413,2.309,0.922V22.943z"/>
<path fill="#CBCED3" d="M80.438,22.943c0,0.509-1.034,0.922-2.309,0.922h-5.387c-1.274,0-2.309-0.413-2.309-0.922v-2.152
	c0-0.509,1.034-0.922,2.309-0.922h5.387c1.274,0,2.309,0.413,2.309,0.922V22.943z"/>
<path fill="#CBCED3" d="M93.375,22.943c0,0.509-1.034,0.922-2.309,0.922H85.68c-1.274,0-2.308-0.413-2.308-0.922v-2.152
	c0-0.509,1.033-0.922,2.308-0.922h5.387c1.274,0,2.309,0.413,2.309,0.922V22.943z"/>
<path fill="#CBCED3" d="M15.753,48.812c0,1.275-1.034,2.309-2.309,2.309H8.059c-1.275,0-2.309-1.033-2.309-2.309v-5.386
	c0-1.275,1.034-2.309,2.309-2.309h5.386c1.275,0,2.309,1.034,2.309,2.309V48.812z"/>
<path fill="#CBCED3" d="M28.69,48.812c0,1.275-1.034,2.309-2.309,2.309h-5.386c-1.275,0-2.309-1.033-2.309-2.309v-5.386
	c0-1.275,1.034-2.309,2.309-2.309h5.386c1.275,0,2.309,1.034,2.309,2.309V48.812z"/>
<path fill="#CBCED3" d="M41.627,48.812c0,1.275-1.034,2.309-2.308,2.309h-5.387c-1.274,0-2.308-1.033-2.308-2.309v-5.386
	c0-1.275,1.034-2.309,2.308-2.309h5.387c1.274,0,2.308,1.034,2.308,2.309V48.812z"/>
<path fill="#CBCED3" d="M54.564,48.812c0,1.275-1.034,2.309-2.309,2.309h-5.387c-1.274,0-2.309-1.033-2.309-2.309v-5.386
	c0-1.275,1.034-2.309,2.309-2.309h5.387c1.274,0,2.309,1.034,2.309,2.309V48.812z"/>
<path fill="#CBCED3" d="M67.502,48.812c0,1.275-1.034,2.309-2.309,2.309h-5.387c-1.274,0-2.309-1.033-2.309-2.309v-5.386
	c0-1.275,1.034-2.309,2.309-2.309h5.387c1.274,0,2.309,1.034,2.309,2.309V48.812z"/>
<path fill="#CBCED3" d="M80.438,48.812c0,1.275-1.034,2.309-2.309,2.309h-5.387c-1.274,0-2.309-1.033-2.309-2.309v-5.386
	c0-1.275,1.034-2.309,2.309-2.309h5.387c1.274,0,2.309,1.034,2.309,2.309V48.812z"/>
<path fill="#CBCED3" d="M93.375,48.812c0,1.275-1.034,2.309-2.309,2.309H85.68c-1.274,0-2.308-1.033-2.308-2.309v-5.386
	c0-1.275,1.033-2.309,2.308-2.309h5.387c1.274,0,2.309,1.034,2.309,2.309V48.812z"/>
<path fill="#CBCED3" d="M15.753,62.562c0,1.275-1.034,2.309-2.309,2.309H8.059c-1.275,0-2.309-1.033-2.309-2.309v-5.387
	c0-1.274,1.034-2.309,2.309-2.309h5.386c1.275,0,2.309,1.034,2.309,2.309V62.562z"/>
<path fill="#CBCED3" d="M28.69,62.562c0,1.275-1.034,2.309-2.309,2.309h-5.386c-1.275,0-2.309-1.033-2.309-2.309v-5.387
	c0-1.274,1.034-2.309,2.309-2.309h5.386c1.275,0,2.309,1.034,2.309,2.309V62.562z"/>
<path fill="#CBCED3" d="M41.627,62.562c0,1.275-1.034,2.309-2.308,2.309h-5.387c-1.274,0-2.308-1.033-2.308-2.309v-5.387
	c0-1.274,1.034-2.309,2.308-2.309h5.387c1.274,0,2.308,1.034,2.308,2.309V62.562z"/>
<path fill="#CBCED3" d="M54.564,62.562c0,1.275-1.034,2.309-2.309,2.309h-5.387c-1.274,0-2.309-1.033-2.309-2.309v-5.387
	c0-1.274,1.034-2.309,2.309-2.309h5.387c1.274,0,2.309,1.034,2.309,2.309V62.562z"/>
<path fill="#CBCED3" d="M67.502,62.562c0,1.275-1.034,2.309-2.309,2.309h-5.387c-1.274,0-2.309-1.033-2.309-2.309v-5.387
	c0-1.274,1.034-2.309,2.309-2.309h5.387c1.274,0,2.309,1.034,2.309,2.309V62.562z"/>
<path fill="#CBCED3" d="M80.438,62.562c0,1.275-1.034,2.309-2.309,2.309h-5.387c-1.274,0-2.309-1.033-2.309-2.309v-5.387
	c0-1.274,1.034-2.309,2.309-2.309h5.387c1.274,0,2.309,1.034,2.309,2.309V62.562z"/>
<path fill="#CBCED3" d="M93.375,62.562c0,1.275-1.034,2.309-2.309,2.309H85.68c-1.274,0-2.308-1.033-2.308-2.309v-5.387
	c0-1.274,1.033-2.309,2.308-2.309h5.387c1.274,0,2.309,1.034,2.309,2.309V62.562z"/>
<path fill="#CBCED3" d="M15.753,75.814c0,1.275-1.034,2.309-2.309,2.309H8.059c-1.275,0-2.309-1.033-2.309-2.309v-5.387
	c0-1.274,1.034-2.309,2.309-2.309h5.386c1.275,0,2.309,1.034,2.309,2.309V75.814z"/>
<path fill="#CBCED3" d="M28.69,75.814c0,1.275-1.034,2.309-2.309,2.309h-5.386c-1.275,0-2.309-1.033-2.309-2.309v-5.387
	c0-1.274,1.034-2.309,2.309-2.309h5.386c1.275,0,2.309,1.034,2.309,2.309V75.814z"/>
<path fill="#CBCED3" d="M41.627,75.814c0,1.275-1.034,2.309-2.308,2.309h-5.387c-1.274,0-2.308-1.033-2.308-2.309v-5.387
	c0-1.274,1.034-2.309,2.308-2.309h5.387c1.274,0,2.308,1.034,2.308,2.309V75.814z"/>
<path fill="#CBCED3" d="M54.564,75.814c0,1.275-1.034,2.309-2.309,2.309h-5.387c-1.274,0-2.309-1.033-2.309-2.309v-5.387
	c0-1.274,1.034-2.309,2.309-2.309h5.387c1.274,0,2.309,1.034,2.309,2.309V75.814z"/>
<path fill="#CBCED3" d="M67.502,75.814c0,1.275-1.034,2.309-2.309,2.309h-5.387c-1.274,0-2.309-1.033-2.309-2.309v-5.387
	c0-1.274,1.034-2.309,2.309-2.309h5.387c1.274,0,2.309,1.034,2.309,2.309V75.814z"/>
<path fill="#CBCED3" d="M80.438,75.814c0,1.275-1.034,2.309-2.309,2.309h-5.387c-1.274,0-2.309-1.033-2.309-2.309v-5.387
	c0-1.274,1.034-2.309,2.309-2.309h5.387c1.274,0,2.309,1.034,2.309,2.309V75.814z"/>
<path fill="#CBCED3" d="M93.375,75.814c0,1.275-1.034,2.309-2.309,2.309H85.68c-1.274,0-2.308-1.033-2.308-2.309v-5.387
	c0-1.274,1.033-2.309,2.308-2.309h5.387c1.274,0,2.309,1.034,2.309,2.309V75.814z"/>
</svg>
