<?xml version="1.0" encoding="utf-8"?>
<!-- Generator: Adobe Illustrator 16.0.4, SVG Export Plug-In . SVG Version: 6.00 Build 0)  -->
<!DOCTYPE svg PUBLIC "-//W3C//DTD SVG 1.1//EN" "http://www.w3.org/Graphics/SVG/1.1/DTD/svg11.dtd">
<svg version="1.1" id="Layer_1" xmlns="http://www.w3.org/2000/svg" xmlns:xlink="http://www.w3.org/1999/xlink" x="0px" y="0px"
	 width="99px" height="95px" viewBox="0 0 99 95" enable-background="new 0 0 99 95" xml:space="preserve">
<path fill="#EFF1F4" d="M99,89c0,3.312-2.688,6-6,6H6c-3.313,0-6-2.688-6-6V6c0-3.313,2.687-6,6-6h87c3.312,0,6,2.687,6,6V89z"/>
<path fill="#CBCED3" d="M-133.5-20.25c0,0.276-0.224,0.5-0.5,0.5l0,0c-0.276,0-0.5-0.224-0.5-0.5l0,0c0-0.276,0.224-0.5,0.5-0.5l0,0
	C-133.724-20.75-133.5-20.526-133.5-20.25L-133.5-20.25z"/>
<path fill="#CBCED3" d="M92.333,16.667C92.333,17.956,91.288,19,90,19H11c-1.289,0-2.333-1.044-2.333-2.333l0,0
	c0-1.289,1.044-2.333,2.333-2.333h79C91.288,14.333,92.333,15.378,92.333,16.667L92.333,16.667z"/>
<path fill="#CBCED3" d="M24.667,26.701c0,1.289-1.044,2.333-2.333,2.333H11c-1.289,0-2.333-1.044-2.333-2.333l0,0
	c0-1.289,1.044-2.333,2.333-2.333h11.333C23.622,24.368,24.667,25.413,24.667,26.701L24.667,26.701z"/>
<path fill="#CBCED3" d="M92.333,26.701c0,1.289-1.045,2.333-2.333,2.333H32c-1.289,0-2.333-1.044-2.333-2.333l0,0
	c0-1.289,1.044-2.333,2.333-2.333h58C91.288,24.368,92.333,25.413,92.333,26.701L92.333,26.701z"/>
<path fill="#CBCED3" d="M24.667,36.736c0,1.289-1.044,2.333-2.333,2.333H11c-1.289,0-2.333-1.044-2.333-2.333l0,0
	c0-1.289,1.044-2.333,2.333-2.333h11.333C23.622,34.403,24.667,35.447,24.667,36.736L24.667,36.736z"/>
<path fill="#CBCED3" d="M92.333,36.736c0,1.289-1.045,2.333-2.333,2.333H32c-1.289,0-2.333-1.044-2.333-2.333l0,0
	c0-1.289,1.044-2.333,2.333-2.333h58C91.288,34.403,92.333,35.447,92.333,36.736L92.333,36.736z"/>
<path fill="#CBCED3" d="M24.667,46.771c0,1.289-1.044,2.334-2.333,2.334H11c-1.289,0-2.333-1.045-2.333-2.334l0,0
	c0-1.288,1.044-2.333,2.333-2.333h11.333C23.622,44.438,24.667,45.482,24.667,46.771L24.667,46.771z"/>
<path fill="#CBCED3" d="M92.333,46.771c0,1.289-1.045,2.334-2.333,2.334H32c-1.289,0-2.333-1.045-2.333-2.334l0,0
	c0-1.288,1.044-2.333,2.333-2.333h58C91.288,44.438,92.333,45.482,92.333,46.771L92.333,46.771z"/>
<path fill="#CBCED3" d="M24.667,56.806c0,1.289-1.044,2.334-2.333,2.334H11c-1.289,0-2.333-1.045-2.333-2.334l0,0
	c0-1.289,1.044-2.333,2.333-2.333h11.333C23.622,54.473,24.667,55.517,24.667,56.806L24.667,56.806z"/>
<path fill="#CBCED3" d="M92.333,56.806c0,1.289-1.045,2.334-2.333,2.334H32c-1.289,0-2.333-1.045-2.333-2.334l0,0
	c0-1.289,1.044-2.333,2.333-2.333h58C91.288,54.473,92.333,55.517,92.333,56.806L92.333,56.806z"/>
<path fill="#CBCED3" d="M24.667,66.84c0,1.289-1.044,2.334-2.333,2.334H11c-1.289,0-2.333-1.045-2.333-2.334l0,0
	c0-1.289,1.044-2.333,2.333-2.333h11.333C23.622,64.507,24.667,65.551,24.667,66.84L24.667,66.84z"/>
<path fill="#CBCED3" d="M92.333,66.84c0,1.289-1.045,2.334-2.333,2.334H32c-1.289,0-2.333-1.045-2.333-2.334l0,0
	c0-1.289,1.044-2.333,2.333-2.333h58C91.288,64.507,92.333,65.551,92.333,66.84L92.333,66.84z"/>
<path fill="#CBCED3" d="M24.667,76.875c0,1.289-1.044,2.334-2.333,2.334H11c-1.289,0-2.333-1.045-2.333-2.334l0,0
	c0-1.289,1.044-2.333,2.333-2.333h11.333C23.622,74.542,24.667,75.586,24.667,76.875L24.667,76.875z"/>
<path fill="#CBCED3" d="M92.333,76.875c0,1.289-1.045,2.334-2.333,2.334H32c-1.289,0-2.333-1.045-2.333-2.334l0,0
	c0-1.289,1.044-2.333,2.333-2.333h58C91.288,74.542,92.333,75.586,92.333,76.875L92.333,76.875z"/>
</svg>
