<?xml version="1.0" encoding="utf-8"?>
<!-- Generator: Adobe Illustrator 16.0.4, SVG Export Plug-In . SVG Version: 6.00 Build 0)  -->
<!DOCTYPE svg PUBLIC "-//W3C//DTD SVG 1.1//EN" "http://www.w3.org/Graphics/SVG/1.1/DTD/svg11.dtd">
<svg version="1.1" id="Layer_1" xmlns="http://www.w3.org/2000/svg" xmlns:xlink="http://www.w3.org/1999/xlink" x="0px" y="0px"
	 width="99px" height="95px" viewBox="0 0 99 95" enable-background="new 0 0 99 95" xml:space="preserve">
<path fill="#EFF1F4" d="M99,89c0,3.312-2.688,6-6,6H6c-3.313,0-6-2.688-6-6V6c0-3.313,2.687-6,6-6h87c3.312,0,6,2.687,6,6V89z"/>
<polygon fill="#CBCED3" points="76.25,62.232 72.363,58.346 80.137,58.346 "/>
<path fill="none" stroke="#CBCED3" stroke-miterlimit="10" d="M85,22.333c0,1.657-1.343,3-3,3H17c-1.657,0-3-1.343-3-3v-6.667
	c0-1.657,1.343-3,3-3h65c1.657,0,3,1.343,3,3V22.333z"/>
<path fill="none" stroke="#CBCED3" stroke-miterlimit="10" d="M85,80c0,1.656-1.343,3-3,3H17c-1.657,0-3-1.344-3-3v-6.666
	c0-1.657,1.343-3,3-3h65c1.657,0,3,1.343,3,3V80z"/>
<path fill="none" stroke="#CBCED3" stroke-miterlimit="10" d="M85,62.766c0,1.656-1.343,3-3,3H17c-1.657,0-3-1.344-3-3V56.1
	c0-1.657,1.343-3,3-3h65c1.657,0,3,1.343,3,3V62.766z"/>
<path fill="none" stroke="#CBCED3" stroke-miterlimit="10" d="M26.333,42.584c0,1.657-1.343,3-3,3H17c-1.657,0-3-1.343-3-3v-6.333
	c0-1.657,1.343-3,3-3h6.333c1.657,0,3,1.343,3,3V42.584z"/>
<path fill="none" stroke="#CBCED3" stroke-miterlimit="10" d="M61.833,42.584c0,1.657-1.343,3-3,3H52.5c-1.657,0-3-1.343-3-3v-6.333
	c0-1.657,1.343-3,3-3h6.333c1.657,0,3,1.343,3,3V42.584z"/>
<g>
	<path fill="#CBCED3" d="M36.254,43.775l-0.78-1.812h-3.516l-0.78,1.812h-1.992l3.624-8.388h1.812l3.624,8.388H36.254z
		 M33.723,37.883l-1.056,2.436h2.1L33.723,37.883z"/>
</g>
<g>
	<path fill="#CBCED3" d="M68.801,43.775h-3.672v-8.388h3.264c0.566,0,1.057,0.068,1.469,0.204c0.412,0.136,0.723,0.32,0.93,0.552
		c0.377,0.432,0.564,0.92,0.564,1.464c0,0.656-0.211,1.144-0.635,1.464c-0.145,0.112-0.244,0.182-0.301,0.21
		c-0.057,0.028-0.156,0.074-0.301,0.138c0.521,0.112,0.936,0.346,1.242,0.702c0.309,0.356,0.463,0.798,0.463,1.326
		c0,0.584-0.201,1.1-0.6,1.548C70.76,43.516,69.951,43.775,68.801,43.775z M67,38.783h0.889c0.52,0,0.906-0.056,1.158-0.168
		c0.252-0.112,0.377-0.354,0.377-0.726c0-0.372-0.115-0.618-0.348-0.738s-0.624-0.18-1.176-0.18H67V38.783z M67,42.191h1.284
		c0.536,0,0.938-0.066,1.206-0.198c0.268-0.132,0.402-0.392,0.402-0.78c0-0.388-0.143-0.644-0.426-0.768
		c-0.285-0.124-0.738-0.186-1.363-0.186H67V42.191z"/>
</g>
</svg>
