<?xml version="1.0" encoding="utf-8"?>
<!-- Generator: Adobe Illustrator 14.0.0, SVG Export Plug-In . SVG Version: 6.00 Build 43363)  -->
<!DOCTYPE svg PUBLIC "-//W3C//DTD SVG 1.1//EN" "http://www.w3.org/Graphics/SVG/1.1/DTD/svg11.dtd">
<svg version="1.1" id="Layer_1" xmlns="http://www.w3.org/2000/svg" xmlns:xlink="http://www.w3.org/1999/xlink" x="0px" y="0px"
	 width="100px" height="100px" viewBox="0 0 100 100" enable-background="new 0 0 100 100" xml:space="preserve">
<linearGradient id="SVGID_1_" gradientUnits="userSpaceOnUse" x1="0.0371" y1="49.8867" x2="99.7861" y2="49.8867">
	<stop  offset="0.0121" style="stop-color:#8CAB28"/>
	<stop  offset="1" style="stop-color:#8FCC28"/>
</linearGradient>
<path fill="url(#SVGID_1_)" enable-background="new    " d="M83.998,0.012H15.825C7.12,0.012,0.037,7.095,0.037,15.8v68.174
	c0,8.704,7.083,15.788,15.788,15.788h68.173c8.705,0,15.788-7.084,15.788-15.788V15.8C99.786,7.095,92.703,0.012,83.998,0.012
	L83.998,0.012z"/>
<path fill="#364736" enable-background="new    " d="M19.835,30.094v-6.197h19.876v26.949c0,4.755-1.208,8.321-3.625,10.699
	s-5.514,3.565-9.294,3.565c-4.755,0-8.808-1.676-12.16-5.028l3.917-5.437c2.649,2.534,5.241,3.8,7.775,3.8
	c1.792,0,3.322-0.604,4.589-1.813c1.266-1.207,1.9-3.019,1.9-5.437V30.094H19.835z M83.321,37.168
	c0,6.743-2.943,10.991-8.828,12.744l10.697,14.85h-8.768l-9.764-13.738h-9.061v13.738H50.7V23.897h15.2
	c6.234,0,10.698,1.053,13.387,3.157S83.321,32.53,83.321,37.168z M74.143,42.956c1.403-1.207,2.104-3.147,2.104-5.816
	c0-2.669-0.721-4.501-2.161-5.496c-1.442-0.994-4.016-1.49-7.717-1.49h-8.77v14.614h8.595C70.09,44.767,72.739,44.164,74.143,42.956
	z M83.998,6.83c4.954,0,8.971,4.016,8.971,8.97v68.174c0,4.953-4.017,8.97-8.971,8.97H15.825c-4.955,0-8.97-4.017-8.97-8.97V15.8
	c0-4.954,4.016-8.97,8.97-8.97H83.998 M83.998,0.012H15.825C7.12,0.012,0.037,7.095,0.037,15.8v68.174
	c0,8.704,7.083,15.788,15.788,15.788h68.173c8.705,0,15.788-7.084,15.788-15.788V15.8C99.786,7.095,92.703,0.012,83.998,0.012
	L83.998,0.012z M85.074,72.132H14.39v6.819h70.685V72.132z"/>
</svg>
