<?xml version="1.0" encoding="utf-8"?>
<!-- Generator: Adobe Illustrator 16.0.4, SVG Export Plug-In . SVG Version: 6.00 Build 0)  -->
<!DOCTYPE svg PUBLIC "-//W3C//DTD SVG 1.1//EN" "http://www.w3.org/Graphics/SVG/1.1/DTD/svg11.dtd">
<svg version="1.1" id="Layer_1" xmlns="http://www.w3.org/2000/svg" xmlns:xlink="http://www.w3.org/1999/xlink" x="0px" y="0px"
	 width="300px" height="300px" viewBox="0 0 300 300" enable-background="new 0 0 300 300" xml:space="preserve">
<path opacity="0.1" fill="#FFFFFF" d="M66.176,94.839v-17.27h55.395v75.107c0,13.253-3.368,23.191-10.102,29.815
	c-6.735,6.627-15.37,9.938-25.904,9.938c-13.253,0-24.549-4.669-33.889-14.012l10.916-15.151c7.385,7.062,14.607,10.59,21.669,10.59
	c4.994,0,9.259-1.683,12.789-5.051c3.528-3.365,5.296-8.416,5.296-15.152V94.839H66.176z M243.111,114.553
	c0,18.793-8.203,30.63-24.602,35.518l29.814,41.383h-24.438l-27.209-38.287h-25.254v38.287h-19.225V77.569h42.361
	c17.377,0,29.814,2.933,37.309,8.798S243.111,101.628,243.111,114.553z M217.531,130.683c3.91-3.365,5.865-8.771,5.865-16.211
	c0-7.438-2.01-12.545-6.027-15.315c-4.02-2.77-11.188-4.155-21.506-4.155h-24.439v40.731h23.951
	C206.234,135.733,213.621,134.051,217.531,130.683z M245,30c13.807,0,25,11.193,25,25v190c0,13.807-11.193,25-25,25H55
	c-13.807,0-25-11.193-25-25V55c0-13.807,11.193-25,25-25H245 M245,11H55c-24.262,0-44,19.738-44,44v190c0,24.262,19.738,44,44,44
	h190c24.262,0,44-19.738,44-44V55C289,30.738,269.262,11,245,11L245,11z M248,212H51v19h197V212z"/>
</svg>
