<?xml version="1.0" encoding="utf-8"?>
<!-- Generator: Adobe Illustrator 16.0.4, SVG Export Plug-In . SVG Version: 6.00 Build 0)  -->
<!DOCTYPE svg PUBLIC "-//W3C//DTD SVG 1.1//EN" "http://www.w3.org/Graphics/SVG/1.1/DTD/svg11.dtd">
<svg version="1.1" id="Layer_1" xmlns="http://www.w3.org/2000/svg" xmlns:xlink="http://www.w3.org/1999/xlink" x="0px" y="0px"
	 width="99px" height="95px" viewBox="0 0 99 95" enable-background="new 0 0 99 95" xml:space="preserve">
<path fill="#EFF1F4" d="M99,89c0,3.312-2.688,6-6,6H6c-3.313,0-6-2.688-6-6V6c0-3.313,2.687-6,6-6h87c3.312,0,6,2.687,6,6V89z"/>
<g>
	<path fill="#CBCED3" d="M9,5.5h15c1.657,0,3,1.343,3,3v15c0,1.657-1.343,3-3,3H9c-1.657,0-3-1.343-3-3v-15C6,6.843,7.343,5.5,9,5.5
		z"/>
	<path fill="#CBCED3" d="M9,36.5h15c1.657,0,3,1.343,3,3v15c0,1.656-1.343,3-3,3H9c-1.657,0-3-1.344-3-3v-15
		C6,37.843,7.343,36.5,9,36.5z"/>
	<path fill="#CBCED3" d="M9,67.5h15c1.657,0,3,1.344,3,3v15c0,1.656-1.343,3-3,3H9c-1.657,0-3-1.344-3-3v-15
		C6,68.844,7.343,67.5,9,67.5z"/>
	<path fill="#CBCED3" d="M33.5,6.5h57C91.881,6.5,93,7.619,93,9s-1.119,2.5-2.5,2.5h-57c-1.381,0-2.5-1.119-2.5-2.5
		S32.119,6.5,33.5,6.5z"/>
	<path fill="#CBCED3" d="M33.5,14.5h5c1.381,0,2.5,1.119,2.5,2.5s-1.119,2.5-2.5,2.5h-5c-1.381,0-2.5-1.119-2.5-2.5
		S32.119,14.5,33.5,14.5z"/>
	<path fill="#CBCED3" d="M46.5,14.5h1c1.381,0,2.5,1.119,2.5,2.5s-1.119,2.5-2.5,2.5h-1c-1.381,0-2.5-1.119-2.5-2.5
		S45.119,14.5,46.5,14.5z"/>
	<path fill="#CBCED3" d="M55.5,14.5h9c1.381,0,2.5,1.119,2.5,2.5s-1.119,2.5-2.5,2.5h-9c-1.381,0-2.5-1.119-2.5-2.5
		S54.119,14.5,55.5,14.5z"/>
	<path fill="#CBCED3" d="M71.5,14.5h3c1.381,0,2.5,1.119,2.5,2.5s-1.119,2.5-2.5,2.5h-3c-1.381,0-2.5-1.119-2.5-2.5
		S70.119,14.5,71.5,14.5z"/>
	<path fill="#CBCED3" d="M81.5,14.5h9c1.381,0,2.5,1.119,2.5,2.5s-1.119,2.5-2.5,2.5h-9c-1.381,0-2.5-1.119-2.5-2.5
		S80.119,14.5,81.5,14.5z"/>
	<path fill="#CBCED3" d="M90.5,22.5h-5c-1.381,0-2.5,1.119-2.5,2.5s1.119,2.5,2.5,2.5h5c1.381,0,2.5-1.119,2.5-2.5
		S91.881,22.5,90.5,22.5z"/>
	<path fill="#CBCED3" d="M77.5,22.5h-1c-1.381,0-2.5,1.119-2.5,2.5s1.119,2.5,2.5,2.5h1c1.381,0,2.5-1.119,2.5-2.5
		S78.881,22.5,77.5,22.5z"/>
	<path fill="#CBCED3" d="M68.5,22.5h-9c-1.381,0-2.5,1.119-2.5,2.5s1.119,2.5,2.5,2.5h9c1.381,0,2.5-1.119,2.5-2.5
		S69.881,22.5,68.5,22.5z"/>
	<path fill="#CBCED3" d="M52.5,22.5h-3c-1.381,0-2.5,1.119-2.5,2.5s1.119,2.5,2.5,2.5h3c1.381,0,2.5-1.119,2.5-2.5
		S53.881,22.5,52.5,22.5z"/>
	<path fill="#CBCED3" d="M42.5,22.5h-9c-1.381,0-2.5,1.119-2.5,2.5s1.119,2.5,2.5,2.5h9c1.381,0,2.5-1.119,2.5-2.5
		S43.881,22.5,42.5,22.5z"/>
	<path fill="#CBCED3" d="M33.5,36.5h57c1.381,0,2.5,1.119,2.5,2.5s-1.119,2.5-2.5,2.5h-57c-1.381,0-2.5-1.119-2.5-2.5
		S32.119,36.5,33.5,36.5z"/>
	<path fill="#CBCED3" d="M33.5,44.5h5c1.381,0,2.5,1.119,2.5,2.5s-1.119,2.5-2.5,2.5h-5c-1.381,0-2.5-1.119-2.5-2.5
		S32.119,44.5,33.5,44.5z"/>
	<path fill="#CBCED3" d="M46.5,44.5h1c1.381,0,2.5,1.119,2.5,2.5s-1.119,2.5-2.5,2.5h-1c-1.381,0-2.5-1.119-2.5-2.5
		S45.119,44.5,46.5,44.5z"/>
	<path fill="#CBCED3" d="M55.5,44.5h9c1.381,0,2.5,1.119,2.5,2.5s-1.119,2.5-2.5,2.5h-9c-1.381,0-2.5-1.119-2.5-2.5
		S54.119,44.5,55.5,44.5z"/>
	<path fill="#CBCED3" d="M71.5,44.5h3c1.381,0,2.5,1.119,2.5,2.5s-1.119,2.5-2.5,2.5h-3c-1.381,0-2.5-1.119-2.5-2.5
		S70.119,44.5,71.5,44.5z"/>
	<path fill="#CBCED3" d="M81.5,44.5h9c1.381,0,2.5,1.119,2.5,2.5s-1.119,2.5-2.5,2.5h-9c-1.381,0-2.5-1.119-2.5-2.5
		S80.119,44.5,81.5,44.5z"/>
	<path fill="#CBCED3" d="M90.5,52.5h-5c-1.381,0-2.5,1.119-2.5,2.5s1.119,2.5,2.5,2.5h5c1.381,0,2.5-1.119,2.5-2.5
		S91.881,52.5,90.5,52.5z"/>
	<path fill="#CBCED3" d="M77.5,52.5h-1c-1.381,0-2.5,1.119-2.5,2.5s1.119,2.5,2.5,2.5h1c1.381,0,2.5-1.119,2.5-2.5
		S78.881,52.5,77.5,52.5z"/>
	<path fill="#CBCED3" d="M68.5,52.5h-9c-1.381,0-2.5,1.119-2.5,2.5s1.119,2.5,2.5,2.5h9c1.381,0,2.5-1.119,2.5-2.5
		S69.881,52.5,68.5,52.5z"/>
	<path fill="#CBCED3" d="M52.5,52.5h-3c-1.381,0-2.5,1.119-2.5,2.5s1.119,2.5,2.5,2.5h3c1.381,0,2.5-1.119,2.5-2.5
		S53.881,52.5,52.5,52.5z"/>
	<path fill="#CBCED3" d="M42.5,52.5h-9c-1.381,0-2.5,1.119-2.5,2.5s1.119,2.5,2.5,2.5h9c1.381,0,2.5-1.119,2.5-2.5
		S43.881,52.5,42.5,52.5z"/>
	<path fill="#CBCED3" d="M33.5,67.5h57c1.381,0,2.5,1.119,2.5,2.5s-1.119,2.5-2.5,2.5h-57c-1.381,0-2.5-1.119-2.5-2.5
		S32.119,67.5,33.5,67.5z"/>
	<path fill="#CBCED3" d="M33.5,75.5h5c1.381,0,2.5,1.119,2.5,2.5s-1.119,2.5-2.5,2.5h-5c-1.381,0-2.5-1.119-2.5-2.5
		S32.119,75.5,33.5,75.5z"/>
	<path fill="#CBCED3" d="M46.5,75.5h1c1.381,0,2.5,1.119,2.5,2.5s-1.119,2.5-2.5,2.5h-1c-1.381,0-2.5-1.119-2.5-2.5
		S45.119,75.5,46.5,75.5z"/>
	<path fill="#CBCED3" d="M55.5,75.5h9c1.381,0,2.5,1.119,2.5,2.5s-1.119,2.5-2.5,2.5h-9c-1.381,0-2.5-1.119-2.5-2.5
		S54.119,75.5,55.5,75.5z"/>
	<path fill="#CBCED3" d="M71.5,75.5h3c1.381,0,2.5,1.119,2.5,2.5s-1.119,2.5-2.5,2.5h-3c-1.381,0-2.5-1.119-2.5-2.5
		S70.119,75.5,71.5,75.5z"/>
	<path fill="#CBCED3" d="M81.5,75.5h9c1.381,0,2.5,1.119,2.5,2.5s-1.119,2.5-2.5,2.5h-9c-1.381,0-2.5-1.119-2.5-2.5
		S80.119,75.5,81.5,75.5z"/>
	<path fill="#CBCED3" d="M90.5,83.5h-5c-1.381,0-2.5,1.119-2.5,2.5s1.119,2.5,2.5,2.5h5c1.381,0,2.5-1.119,2.5-2.5
		S91.881,83.5,90.5,83.5z"/>
	<path fill="#CBCED3" d="M77.5,83.5h-1c-1.381,0-2.5,1.119-2.5,2.5s1.119,2.5,2.5,2.5h1c1.381,0,2.5-1.119,2.5-2.5
		S78.881,83.5,77.5,83.5z"/>
	<path fill="#CBCED3" d="M68.5,83.5h-9c-1.381,0-2.5,1.119-2.5,2.5s1.119,2.5,2.5,2.5h9c1.381,0,2.5-1.119,2.5-2.5
		S69.881,83.5,68.5,83.5z"/>
	<path fill="#CBCED3" d="M52.5,83.5h-3c-1.381,0-2.5,1.119-2.5,2.5s1.119,2.5,2.5,2.5h3c1.381,0,2.5-1.119,2.5-2.5
		S53.881,83.5,52.5,83.5z"/>
	<path fill="#CBCED3" d="M42.5,83.5h-9c-1.381,0-2.5,1.119-2.5,2.5s1.119,2.5,2.5,2.5h9c1.381,0,2.5-1.119,2.5-2.5
		S43.881,83.5,42.5,83.5z"/>
</g>
<g>
	<path fill="#EFF1F4" d="M15.864,20.893v-1.139c-0.804-0.036-1.583-0.252-2.039-0.516l0.36-1.403
		c0.503,0.275,1.211,0.527,1.991,0.527c0.684,0,1.151-0.264,1.151-0.744c0-0.456-0.384-0.744-1.271-1.043
		c-1.284-0.432-2.159-1.031-2.159-2.194c0-1.056,0.744-1.883,2.027-2.135v-1.139H17.1v1.055c0.803,0.036,1.343,0.204,1.739,0.396
		l-0.348,1.355c-0.312-0.132-0.864-0.408-1.727-0.408c-0.78,0-1.032,0.336-1.032,0.672c0,0.396,0.42,0.647,1.439,1.031
		c1.427,0.504,2.003,1.164,2.003,2.243c0,1.067-0.756,1.979-2.135,2.219v1.223H15.864z"/>
</g>
<g>
	<path fill="#EFF1F4" d="M15.864,51.894v-1.14c-0.804-0.035-1.583-0.252-2.039-0.516l0.36-1.402
		c0.503,0.275,1.211,0.527,1.991,0.527c0.684,0,1.151-0.264,1.151-0.744c0-0.455-0.384-0.744-1.271-1.043
		c-1.284-0.432-2.159-1.031-2.159-2.194c0-1.056,0.744-1.883,2.027-2.135v-1.139H17.1v1.055c0.803,0.036,1.343,0.204,1.739,0.396
		l-0.348,1.355c-0.312-0.132-0.864-0.408-1.727-0.408c-0.78,0-1.032,0.336-1.032,0.672c0,0.396,0.42,0.647,1.439,1.031
		c1.427,0.504,2.003,1.164,2.003,2.243c0,1.068-0.756,1.979-2.135,2.219v1.224H15.864z"/>
</g>
<g>
	<path fill="#EFF1F4" d="M15.864,82.894v-1.14c-0.804-0.035-1.583-0.252-2.039-0.516l0.36-1.402
		c0.503,0.275,1.211,0.527,1.991,0.527c0.684,0,1.151-0.264,1.151-0.744c0-0.455-0.384-0.744-1.271-1.043
		c-1.284-0.432-2.159-1.031-2.159-2.195c0-1.055,0.744-1.883,2.027-2.135v-1.139H17.1v1.055c0.803,0.036,1.343,0.204,1.739,0.396
		l-0.348,1.355c-0.312-0.133-0.864-0.408-1.727-0.408c-0.78,0-1.032,0.336-1.032,0.672c0,0.395,0.42,0.646,1.439,1.031
		c1.427,0.504,2.003,1.163,2.003,2.242c0,1.068-0.756,1.979-2.135,2.219v1.224H15.864z"/>
</g>
</svg>
