<?xml version="1.0" encoding="utf-8"?>
<!-- Generator: Adobe Illustrator 16.0.4, SVG Export Plug-In . SVG Version: 6.00 Build 0)  -->
<!DOCTYPE svg PUBLIC "-//W3C//DTD SVG 1.1//EN" "http://www.w3.org/Graphics/SVG/1.1/DTD/svg11.dtd">
<svg version="1.1" id="Layer_1" xmlns="http://www.w3.org/2000/svg" xmlns:xlink="http://www.w3.org/1999/xlink" x="0px" y="0px"
	 width="99px" height="95px" viewBox="0 0 99 95" enable-background="new 0 0 99 95" xml:space="preserve">
<path fill="#EFF1F4" d="M99,89c0,3.312-2.688,6-6,6H6c-3.313,0-6-2.688-6-6V6c0-3.313,2.687-6,6-6h87c3.312,0,6,2.687,6,6V89z"/>
<polygon fill="#CBCED3" points="9.808,43.318 8.216,41.727 3.443,46.5 3.443,46.5 3.443,46.5 8.216,51.273 9.808,49.682 6.626,46.5 
	"/>
<polygon fill="#CBCED3" points="89.318,49.682 90.91,51.273 95.684,46.5 95.684,46.5 95.684,46.5 90.91,41.727 89.318,43.318 
	92.5,46.5 "/>
<path fill="#CBCED3" d="M86.699,65.75c0,1.657-1.343,3-3,3H15.301c-1.657,0-3-1.343-3-3v-38.5c0-1.657,1.343-3,3-3h68.398
	c1.657,0,3,1.343,3,3V65.75z"/>
<path fill="#CBCED3" d="M-133.5-20.25c0,0.276-0.224,0.5-0.5,0.5l0,0c-0.276,0-0.5-0.224-0.5-0.5l0,0c0-0.276,0.224-0.5,0.5-0.5l0,0
	C-133.724-20.75-133.5-20.526-133.5-20.25L-133.5-20.25z"/>
</svg>
