<?xml version="1.0" encoding="utf-8"?>
<!-- Generator: Adobe Illustrator 16.0.4, SVG Export Plug-In . SVG Version: 6.00 Build 0)  -->
<!DOCTYPE svg PUBLIC "-//W3C//DTD SVG 1.1//EN" "http://www.w3.org/Graphics/SVG/1.1/DTD/svg11.dtd">
<svg version="1.1" id="Layer_1" xmlns="http://www.w3.org/2000/svg" xmlns:xlink="http://www.w3.org/1999/xlink" x="0px" y="0px"
	 width="99px" height="95px" viewBox="0 0 99 95" enable-background="new 0 0 99 95" xml:space="preserve">
<path fill-rule="evenodd" clip-rule="evenodd" fill="#EFF1F4" d="M99,89c0,3.313-2.687,6-6,6H6c-3.313,0-6-2.687-6-6V6
	c0-3.313,2.687-6,6-6h87c3.313,0,6,2.687,6,6V89z"/>
<g>
	<path fill-rule="evenodd" clip-rule="evenodd" fill="#CBCED3" d="M9,5.5h15c1.657,0,3,1.343,3,3v15c0,1.657-1.343,3-3,3H9
		c-1.657,0-3-1.343-3-3v-15C6,6.843,7.343,5.5,9,5.5z"/>
	<path fill-rule="evenodd" clip-rule="evenodd" fill="#CBCED3" d="M9,36.5h15c1.657,0,3,1.343,3,3v15c0,1.656-1.343,3-3,3H9
		c-1.657,0-3-1.344-3-3v-15C6,37.843,7.343,36.5,9,36.5z"/>
	<path fill-rule="evenodd" clip-rule="evenodd" fill="#CBCED3" d="M9,67.5h15c1.657,0,3,1.344,3,3v15c0,1.656-1.343,3-3,3H9
		c-1.657,0-3-1.344-3-3v-15C6,68.844,7.343,67.5,9,67.5z"/>
	<path fill-rule="evenodd" clip-rule="evenodd" fill="#CBCED3" d="M33.5,6.5h57C91.881,6.5,93,7.619,93,9s-1.119,2.5-2.5,2.5h-57
		c-1.381,0-2.5-1.119-2.5-2.5S32.119,6.5,33.5,6.5z"/>
	<path fill-rule="evenodd" clip-rule="evenodd" fill="#CBCED3" d="M33.5,14.5h5c1.381,0,2.5,1.119,2.5,2.5s-1.119,2.5-2.5,2.5h-5
		c-1.381,0-2.5-1.119-2.5-2.5S32.119,14.5,33.5,14.5z"/>
	<path fill-rule="evenodd" clip-rule="evenodd" fill="#CBCED3" d="M46.5,14.5h1c1.381,0,2.5,1.119,2.5,2.5s-1.119,2.5-2.5,2.5h-1
		c-1.381,0-2.5-1.119-2.5-2.5S45.119,14.5,46.5,14.5z"/>
	<path fill-rule="evenodd" clip-rule="evenodd" fill="#CBCED3" d="M55.5,14.5h9c1.381,0,2.5,1.119,2.5,2.5s-1.119,2.5-2.5,2.5h-9
		c-1.381,0-2.5-1.119-2.5-2.5S54.119,14.5,55.5,14.5z"/>
	<path fill-rule="evenodd" clip-rule="evenodd" fill="#CBCED3" d="M71.5,14.5h3c1.381,0,2.5,1.119,2.5,2.5s-1.119,2.5-2.5,2.5h-3
		c-1.381,0-2.5-1.119-2.5-2.5S70.119,14.5,71.5,14.5z"/>
	<path fill-rule="evenodd" clip-rule="evenodd" fill="#CBCED3" d="M81.5,14.5h9c1.381,0,2.5,1.119,2.5,2.5s-1.119,2.5-2.5,2.5h-9
		c-1.381,0-2.5-1.119-2.5-2.5S80.119,14.5,81.5,14.5z"/>
	<path fill-rule="evenodd" clip-rule="evenodd" fill="#CBCED3" d="M90.5,22.5h-5c-1.381,0-2.5,1.119-2.5,2.5s1.119,2.5,2.5,2.5h5
		c1.381,0,2.5-1.119,2.5-2.5S91.881,22.5,90.5,22.5z"/>
	<path fill-rule="evenodd" clip-rule="evenodd" fill="#CBCED3" d="M77.5,22.5h-1c-1.381,0-2.5,1.119-2.5,2.5s1.119,2.5,2.5,2.5h1
		c1.381,0,2.5-1.119,2.5-2.5S78.881,22.5,77.5,22.5z"/>
	<path fill-rule="evenodd" clip-rule="evenodd" fill="#CBCED3" d="M68.5,22.5h-9c-1.381,0-2.5,1.119-2.5,2.5s1.119,2.5,2.5,2.5h9
		c1.381,0,2.5-1.119,2.5-2.5S69.881,22.5,68.5,22.5z"/>
	<path fill-rule="evenodd" clip-rule="evenodd" fill="#CBCED3" d="M52.5,22.5h-3c-1.381,0-2.5,1.119-2.5,2.5s1.119,2.5,2.5,2.5h3
		c1.381,0,2.5-1.119,2.5-2.5S53.881,22.5,52.5,22.5z"/>
	<path fill-rule="evenodd" clip-rule="evenodd" fill="#CBCED3" d="M42.5,22.5h-9c-1.381,0-2.5,1.119-2.5,2.5s1.119,2.5,2.5,2.5h9
		c1.381,0,2.5-1.119,2.5-2.5S43.881,22.5,42.5,22.5z"/>
	<path fill-rule="evenodd" clip-rule="evenodd" fill="#CBCED3" d="M33.5,36.5h57c1.381,0,2.5,1.119,2.5,2.5s-1.119,2.5-2.5,2.5h-57
		c-1.381,0-2.5-1.119-2.5-2.5S32.119,36.5,33.5,36.5z"/>
	<path fill-rule="evenodd" clip-rule="evenodd" fill="#CBCED3" d="M33.5,44.5h5c1.381,0,2.5,1.119,2.5,2.5s-1.119,2.5-2.5,2.5h-5
		c-1.381,0-2.5-1.119-2.5-2.5S32.119,44.5,33.5,44.5z"/>
	<path fill-rule="evenodd" clip-rule="evenodd" fill="#CBCED3" d="M46.5,44.5h1c1.381,0,2.5,1.119,2.5,2.5s-1.119,2.5-2.5,2.5h-1
		c-1.381,0-2.5-1.119-2.5-2.5S45.119,44.5,46.5,44.5z"/>
	<path fill-rule="evenodd" clip-rule="evenodd" fill="#CBCED3" d="M55.5,44.5h9c1.381,0,2.5,1.119,2.5,2.5s-1.119,2.5-2.5,2.5h-9
		c-1.381,0-2.5-1.119-2.5-2.5S54.119,44.5,55.5,44.5z"/>
	<path fill-rule="evenodd" clip-rule="evenodd" fill="#CBCED3" d="M71.5,44.5h3c1.381,0,2.5,1.119,2.5,2.5s-1.119,2.5-2.5,2.5h-3
		c-1.381,0-2.5-1.119-2.5-2.5S70.119,44.5,71.5,44.5z"/>
	<path fill-rule="evenodd" clip-rule="evenodd" fill="#CBCED3" d="M81.5,44.5h9c1.381,0,2.5,1.119,2.5,2.5s-1.119,2.5-2.5,2.5h-9
		c-1.381,0-2.5-1.119-2.5-2.5S80.119,44.5,81.5,44.5z"/>
	<path fill-rule="evenodd" clip-rule="evenodd" fill="#CBCED3" d="M90.5,52.5h-5c-1.381,0-2.5,1.119-2.5,2.5s1.119,2.5,2.5,2.5h5
		c1.381,0,2.5-1.119,2.5-2.5S91.881,52.5,90.5,52.5z"/>
	<path fill-rule="evenodd" clip-rule="evenodd" fill="#CBCED3" d="M77.5,52.5h-1c-1.381,0-2.5,1.119-2.5,2.5s1.119,2.5,2.5,2.5h1
		c1.381,0,2.5-1.119,2.5-2.5S78.881,52.5,77.5,52.5z"/>
	<path fill-rule="evenodd" clip-rule="evenodd" fill="#CBCED3" d="M68.5,52.5h-9c-1.381,0-2.5,1.119-2.5,2.5s1.119,2.5,2.5,2.5h9
		c1.381,0,2.5-1.119,2.5-2.5S69.881,52.5,68.5,52.5z"/>
	<path fill-rule="evenodd" clip-rule="evenodd" fill="#CBCED3" d="M52.5,52.5h-3c-1.381,0-2.5,1.119-2.5,2.5s1.119,2.5,2.5,2.5h3
		c1.381,0,2.5-1.119,2.5-2.5S53.881,52.5,52.5,52.5z"/>
	<path fill-rule="evenodd" clip-rule="evenodd" fill="#CBCED3" d="M42.5,52.5h-9c-1.381,0-2.5,1.119-2.5,2.5s1.119,2.5,2.5,2.5h9
		c1.381,0,2.5-1.119,2.5-2.5S43.881,52.5,42.5,52.5z"/>
	<path fill-rule="evenodd" clip-rule="evenodd" fill="#CBCED3" d="M33.5,67.5h57c1.381,0,2.5,1.119,2.5,2.5s-1.119,2.5-2.5,2.5h-57
		c-1.381,0-2.5-1.119-2.5-2.5S32.119,67.5,33.5,67.5z"/>
	<path fill-rule="evenodd" clip-rule="evenodd" fill="#CBCED3" d="M33.5,75.5h5c1.381,0,2.5,1.119,2.5,2.5s-1.119,2.5-2.5,2.5h-5
		c-1.381,0-2.5-1.119-2.5-2.5S32.119,75.5,33.5,75.5z"/>
	<path fill-rule="evenodd" clip-rule="evenodd" fill="#CBCED3" d="M46.5,75.5h1c1.381,0,2.5,1.119,2.5,2.5s-1.119,2.5-2.5,2.5h-1
		c-1.381,0-2.5-1.119-2.5-2.5S45.119,75.5,46.5,75.5z"/>
	<path fill-rule="evenodd" clip-rule="evenodd" fill="#CBCED3" d="M55.5,75.5h9c1.381,0,2.5,1.119,2.5,2.5s-1.119,2.5-2.5,2.5h-9
		c-1.381,0-2.5-1.119-2.5-2.5S54.119,75.5,55.5,75.5z"/>
	<path fill-rule="evenodd" clip-rule="evenodd" fill="#CBCED3" d="M71.5,75.5h3c1.381,0,2.5,1.119,2.5,2.5s-1.119,2.5-2.5,2.5h-3
		c-1.381,0-2.5-1.119-2.5-2.5S70.119,75.5,71.5,75.5z"/>
	<path fill-rule="evenodd" clip-rule="evenodd" fill="#CBCED3" d="M81.5,75.5h9c1.381,0,2.5,1.119,2.5,2.5s-1.119,2.5-2.5,2.5h-9
		c-1.381,0-2.5-1.119-2.5-2.5S80.119,75.5,81.5,75.5z"/>
	<path fill-rule="evenodd" clip-rule="evenodd" fill="#CBCED3" d="M90.5,83.5h-5c-1.381,0-2.5,1.119-2.5,2.5s1.119,2.5,2.5,2.5h5
		c1.381,0,2.5-1.119,2.5-2.5S91.881,83.5,90.5,83.5z"/>
	<path fill-rule="evenodd" clip-rule="evenodd" fill="#CBCED3" d="M77.5,83.5h-1c-1.381,0-2.5,1.119-2.5,2.5s1.119,2.5,2.5,2.5h1
		c1.381,0,2.5-1.119,2.5-2.5S78.881,83.5,77.5,83.5z"/>
	<path fill-rule="evenodd" clip-rule="evenodd" fill="#CBCED3" d="M68.5,83.5h-9c-1.381,0-2.5,1.119-2.5,2.5s1.119,2.5,2.5,2.5h9
		c1.381,0,2.5-1.119,2.5-2.5S69.881,83.5,68.5,83.5z"/>
	<path fill-rule="evenodd" clip-rule="evenodd" fill="#CBCED3" d="M52.5,83.5h-3c-1.381,0-2.5,1.119-2.5,2.5s1.119,2.5,2.5,2.5h3
		c1.381,0,2.5-1.119,2.5-2.5S53.881,83.5,52.5,83.5z"/>
	<path fill-rule="evenodd" clip-rule="evenodd" fill="#CBCED3" d="M42.5,83.5h-9c-1.381,0-2.5,1.119-2.5,2.5s1.119,2.5,2.5,2.5h9
		c1.381,0,2.5-1.119,2.5-2.5S43.881,83.5,42.5,83.5z"/>
</g>
</svg>
