<?xml version="1.0" encoding="utf-8"?>
<!-- Generator: Adobe Illustrator 16.0.4, SVG Export Plug-In . SVG Version: 6.00 Build 0)  -->
<!DOCTYPE svg PUBLIC "-//W3C//DTD SVG 1.1//EN" "http://www.w3.org/Graphics/SVG/1.1/DTD/svg11.dtd">
<svg version="1.1" id="Layer_1" xmlns="http://www.w3.org/2000/svg" xmlns:xlink="http://www.w3.org/1999/xlink" x="0px" y="0px"
	 width="99px" height="95px" viewBox="0 0 99 95" enable-background="new 0 0 99 95" xml:space="preserve">
<path fill="#EFF1F4" d="M99,89c0,3.312-2.688,6-6,6H6c-3.313,0-6-2.688-6-6V6c0-3.313,2.687-6,6-6h87c3.312,0,6,2.687,6,6V89z"/>
<g>
	<path fill="#CBCED3" d="M9,6.5h19c1.657,0,3,1.343,3,3v17c0,1.657-1.343,3-3,3H9c-1.657,0-3-1.343-3-3v-17C6,7.843,7.343,6.5,9,6.5
		z"/>
	<path fill="#CBCED3" d="M40,6.5h19c1.656,0,3,1.343,3,3v17c0,1.657-1.344,3-3,3H40c-1.657,0-3-1.343-3-3v-17
		C37,7.843,38.343,6.5,40,6.5z"/>
	<path fill="#CBCED3" d="M71,6.5h19c1.656,0,3,1.343,3,3v17c0,1.657-1.344,3-3,3H71c-1.656,0-3-1.343-3-3v-17
		C68,7.843,69.344,6.5,71,6.5z"/>
	<path fill="#CBCED3" d="M9,35.5h19c1.657,0,3,1.343,3,3v17c0,1.656-1.343,3-3,3H9c-1.657,0-3-1.344-3-3v-17
		C6,36.843,7.343,35.5,9,35.5z"/>
	<path fill="#CBCED3" d="M40,35.5h19c1.656,0,3,1.343,3,3v17c0,1.656-1.344,3-3,3H40c-1.657,0-3-1.344-3-3v-17
		C37,36.843,38.343,35.5,40,35.5z"/>
	<path fill="#CBCED3" d="M71,35.5h19c1.656,0,3,1.343,3,3v17c0,1.656-1.344,3-3,3H71c-1.656,0-3-1.344-3-3v-17
		C68,36.843,69.344,35.5,71,35.5z"/>
	<path fill="#CBCED3" d="M9,65.5h19c1.657,0,3,1.344,3,3v17c0,1.656-1.343,3-3,3H9c-1.657,0-3-1.344-3-3v-17
		C6,66.844,7.343,65.5,9,65.5z"/>
	<path fill="#CBCED3" d="M40,65.5h19c1.656,0,3,1.344,3,3v17c0,1.656-1.344,3-3,3H40c-1.657,0-3-1.344-3-3v-17
		C37,66.844,38.343,65.5,40,65.5z"/>
	<path fill="#CBCED3" d="M71,65.5h19c1.656,0,3,1.344,3,3v17c0,1.656-1.344,3-3,3H71c-1.656,0-3-1.344-3-3v-17
		C68,66.844,69.344,65.5,71,65.5z"/>
</g>
<polygon fill="#EFF1F4" points="14.083,22.417 14.083,13.583 22.917,18 "/>
<polygon fill="#EFF1F4" points="45.084,22.417 45.084,13.583 53.917,18 "/>
<polygon fill="#EFF1F4" points="76.084,22.417 76.084,13.583 84.917,18 "/>
<polygon fill="#EFF1F4" points="16.25,50.916 16.25,42.084 25.083,46.5 "/>
<polygon fill="#EFF1F4" points="45.917,50.916 45.917,42.083 54.75,46.5 "/>
<polygon fill="#EFF1F4" points="76.084,50.916 76.084,42.083 84.917,46.5 "/>
<polygon fill="#EFF1F4" points="14.083,81.416 14.083,72.584 22.917,77 "/>
<polygon fill="#EFF1F4" points="45.084,81.416 45.084,72.584 53.917,77 "/>
<polygon fill="#EFF1F4" points="76.084,81.416 76.084,72.584 84.917,77 "/>
</svg>
