<?xml version="1.0" encoding="utf-8"?>
<!-- Generator: Adobe Illustrator 16.0.4, SVG Export Plug-In . SVG Version: 6.00 Build 0)  -->
<!DOCTYPE svg PUBLIC "-//W3C//DTD SVG 1.1//EN" "http://www.w3.org/Graphics/SVG/1.1/DTD/svg11.dtd">
<svg version="1.1" id="Layer_1" xmlns="http://www.w3.org/2000/svg" xmlns:xlink="http://www.w3.org/1999/xlink" x="0px" y="0px"
	 width="99px" height="95px" viewBox="0 0 99 95" enable-background="new 0 0 99 95" xml:space="preserve">
<path fill="#EFF1F4" d="M99,89c0,3.312-2.688,6-6,6H6c-3.313,0-6-2.688-6-6V6c0-3.313,2.687-6,6-6h87c3.312,0,6,2.687,6,6V89z"/>
<g>
	<path fill="#CBCED3" d="M23.667,13h62c1.381,0,2.5,1.119,2.5,2.5s-1.119,2.5-2.5,2.5h-62c-1.381,0-2.5-1.119-2.5-2.5
		S22.286,13,23.667,13z"/>
	<path fill="#CBCED3" d="M23.667,21h10c1.381,0,2.5,1.119,2.5,2.5s-1.119,2.5-2.5,2.5h-10c-1.381,0-2.5-1.119-2.5-2.5
		S22.286,21,23.667,21z"/>
	<path fill="#CBCED3" d="M41.667,21h1c1.381,0,2.5,1.119,2.5,2.5s-1.119,2.5-2.5,2.5h-1c-1.381,0-2.5-1.119-2.5-2.5
		S40.286,21,41.667,21z"/>
	<path fill="#CBCED3" d="M50.667,21h9c1.381,0,2.5,1.119,2.5,2.5s-1.119,2.5-2.5,2.5h-9c-1.381,0-2.5-1.119-2.5-2.5
		S49.286,21,50.667,21z"/>
	<path fill="#CBCED3" d="M66.667,21h3c1.381,0,2.5,1.119,2.5,2.5s-1.119,2.5-2.5,2.5h-3c-1.381,0-2.5-1.119-2.5-2.5
		S65.286,21,66.667,21z"/>
	<path fill="#CBCED3" d="M76.667,21h9c1.381,0,2.5,1.119,2.5,2.5s-1.119,2.5-2.5,2.5h-9c-1.381,0-2.5-1.119-2.5-2.5
		S75.286,21,76.667,21z"/>
	<path fill="#CBCED3" d="M41.667,32h44c1.381,0,2.5,1.119,2.5,2.5s-1.119,2.5-2.5,2.5h-44c-1.381,0-2.5-1.119-2.5-2.5
		S40.286,32,41.667,32z"/>
	<path fill="#CBCED3" d="M41.667,40h1c1.381,0,2.5,1.119,2.5,2.5s-1.119,2.5-2.5,2.5h-1c-1.381,0-2.5-1.119-2.5-2.5
		S40.286,40,41.667,40z"/>
	<path fill="#CBCED3" d="M50.667,40h9c1.381,0,2.5,1.119,2.5,2.5s-1.119,2.5-2.5,2.5h-9c-1.381,0-2.5-1.119-2.5-2.5
		S49.286,40,50.667,40z"/>
	<path fill="#CBCED3" d="M66.667,40h10c1.381,0,2.5,1.119,2.5,2.5s-1.119,2.5-2.5,2.5h-10c-1.381,0-2.5-1.119-2.5-2.5
		S65.286,40,66.667,40z"/>
	<path fill="#CBCED3" d="M83.667,40h2c1.381,0,2.5,1.119,2.5,2.5s-1.119,2.5-2.5,2.5h-2c-1.381,0-2.5-1.119-2.5-2.5
		S82.286,40,83.667,40z"/>
	<path fill="#CBCED3" d="M23.667,51h62c1.381,0,2.5,1.119,2.5,2.5s-1.119,2.5-2.5,2.5h-62c-1.381,0-2.5-1.119-2.5-2.5
		S22.286,51,23.667,51z"/>
	<path fill="#CBCED3" d="M23.667,59h10c1.381,0,2.5,1.119,2.5,2.5s-1.119,2.5-2.5,2.5h-10c-1.381,0-2.5-1.119-2.5-2.5
		S22.286,59,23.667,59z"/>
	<path fill="#CBCED3" d="M41.667,59h1c1.381,0,2.5,1.119,2.5,2.5s-1.119,2.5-2.5,2.5h-1c-1.381,0-2.5-1.119-2.5-2.5
		S40.286,59,41.667,59z"/>
	<path fill="#CBCED3" d="M50.667,59h9c1.381,0,2.5,1.119,2.5,2.5s-1.119,2.5-2.5,2.5h-9c-1.381,0-2.5-1.119-2.5-2.5
		S49.286,59,50.667,59z"/>
	<path fill="#CBCED3" d="M66.667,59h3c1.381,0,2.5,1.119,2.5,2.5s-1.119,2.5-2.5,2.5h-3c-1.381,0-2.5-1.119-2.5-2.5
		S65.286,59,66.667,59z"/>
	<path fill="#CBCED3" d="M76.667,59h9c1.381,0,2.5,1.119,2.5,2.5s-1.119,2.5-2.5,2.5h-9c-1.381,0-2.5-1.119-2.5-2.5
		S75.286,59,76.667,59z"/>
	<path fill="#CBCED3" d="M41.667,70h44c1.381,0,2.5,1.119,2.5,2.5s-1.119,2.5-2.5,2.5h-44c-1.381,0-2.5-1.119-2.5-2.5
		S40.286,70,41.667,70z"/>
	<path fill="#CBCED3" d="M41.667,78h1c1.381,0,2.5,1.119,2.5,2.5s-1.119,2.5-2.5,2.5h-1c-1.381,0-2.5-1.119-2.5-2.5
		S40.286,78,41.667,78z"/>
	<path fill="#CBCED3" d="M50.667,78h9c1.381,0,2.5,1.119,2.5,2.5s-1.119,2.5-2.5,2.5h-9c-1.381,0-2.5-1.119-2.5-2.5
		S49.286,78,50.667,78z"/>
	<path fill="#CBCED3" d="M66.667,78h10c1.381,0,2.5,1.119,2.5,2.5s-1.119,2.5-2.5,2.5h-10c-1.381,0-2.5-1.119-2.5-2.5
		S65.286,78,66.667,78z"/>
	<path fill="#CBCED3" d="M83.667,78h2c1.381,0,2.5,1.119,2.5,2.5s-1.119,2.5-2.5,2.5h-2c-1.381,0-2.5-1.119-2.5-2.5
		S82.286,78,83.667,78z"/>
</g>
<g>
	<path fill="#CBCED3" d="M13.438,21.848h-1.973v-1.064c0-0.466,0.055-0.812,0.166-1.039c0.11-0.227,0.352-0.526,0.725-0.899
		l1.273-1.273c0.268-0.291,0.402-0.652,0.402-1.083c0-0.431-0.14-0.788-0.419-1.073c-0.279-0.285-0.641-0.428-1.083-0.428
		c-0.442,0-0.812,0.137-1.108,0.41s-0.469,0.637-0.515,1.091H8.795c0.116-1.035,0.521-1.848,1.213-2.436
		c0.692-0.587,1.557-0.881,2.593-0.881c1.035,0,1.879,0.282,2.531,0.847c0.651,0.564,0.978,1.353,0.978,2.365
		c0,0.698-0.192,1.28-0.576,1.746c-0.222,0.279-0.39,0.477-0.506,0.593c-0.117,0.117-0.271,0.266-0.463,0.445
		c-0.192,0.181-0.355,0.338-0.489,0.472c-0.134,0.134-0.241,0.247-0.322,0.34c-0.21,0.257-0.314,0.617-0.314,1.083v0.784H13.438z
		 M12.487,25.724c-0.367,0-0.685-0.125-0.952-0.376c-0.268-0.25-0.401-0.553-0.401-0.907c0-0.355,0.131-0.66,0.393-0.917
		c0.263-0.256,0.576-0.384,0.943-0.384c0.366,0,0.684,0.125,0.951,0.375c0.268,0.251,0.401,0.553,0.401,0.908
		s-0.131,0.66-0.393,0.916C13.168,25.596,12.854,25.724,12.487,25.724z"/>
</g>
<g>
	<path fill="#CBCED3" d="M31.747,43.807l-1.012-2.351h-4.561l-1.012,2.351h-2.584l4.701-10.881h2.351l4.701,10.881H31.747z
		 M28.462,36.164l-1.37,3.16h2.724L28.462,36.164z"/>
</g>
<g>
	<path fill="#CBCED3" d="M13.438,59.677h-1.973v-1.063c0-0.467,0.055-0.812,0.166-1.039c0.11-0.227,0.352-0.526,0.725-0.899
		L13.63,55.4c0.268-0.291,0.402-0.652,0.402-1.084c0-0.431-0.14-0.787-0.419-1.072c-0.279-0.285-0.641-0.428-1.083-0.428
		c-0.442,0-0.812,0.137-1.108,0.41c-0.296,0.272-0.469,0.637-0.515,1.09H8.795c0.116-1.034,0.521-1.848,1.213-2.436
		C10.7,51.294,11.565,51,12.601,51c1.035,0,1.879,0.282,2.531,0.848c0.651,0.563,0.978,1.353,0.978,2.364
		c0,0.698-0.192,1.28-0.576,1.746c-0.222,0.278-0.39,0.478-0.506,0.593c-0.117,0.117-0.271,0.266-0.463,0.445
		c-0.192,0.181-0.355,0.338-0.489,0.472c-0.134,0.134-0.241,0.247-0.322,0.341c-0.21,0.256-0.314,0.616-0.314,1.082v0.786H13.438z
		 M12.487,63.553c-0.367,0-0.685-0.125-0.952-0.376c-0.268-0.25-0.401-0.553-0.401-0.907s0.131-0.66,0.393-0.916
		c0.263-0.256,0.576-0.385,0.943-0.385c0.366,0,0.684,0.125,0.951,0.375c0.268,0.252,0.401,0.553,0.401,0.908
		s-0.131,0.66-0.393,0.916C13.168,63.425,12.854,63.553,12.487,63.553z"/>
</g>
<g>
	<path fill="#CBCED3" d="M31.747,81.636l-1.012-2.351h-4.561l-1.012,2.351h-2.584l4.701-10.882h2.351l4.701,10.882H31.747z
		 M28.462,73.992l-1.37,3.16h2.724L28.462,73.992z"/>
</g>
</svg>
