<?xml version="1.0" encoding="utf-8"?>
<!-- Generator: Adobe Illustrator 16.0.4, SVG Export Plug-In . SVG Version: 6.00 Build 0)  -->
<!DOCTYPE svg PUBLIC "-//W3C//DTD SVG 1.1//EN" "http://www.w3.org/Graphics/SVG/1.1/DTD/svg11.dtd">
<svg version="1.1" id="Layer_1" xmlns="http://www.w3.org/2000/svg" xmlns:xlink="http://www.w3.org/1999/xlink" x="0px" y="0px"
	 width="99px" height="95px" viewBox="0 0 99 95" enable-background="new 0 0 99 95" xml:space="preserve">
<path fill="#EFF1F4" d="M99,89c0,3.312-2.688,6-6,6H6c-3.313,0-6-2.688-6-6V6c0-3.313,2.687-6,6-6h87c3.312,0,6,2.687,6,6V89z"/>
<g>
	<path fill="#CBCED3" d="M7,4.5h19c1.657,0,3,1.343,3,3v17c0,1.657-1.343,3-3,3H7c-1.657,0-3-1.343-3-3v-17C4,5.843,5.343,4.5,7,4.5
		z"/>
	<path fill="#CBCED3" d="M38,4.5h19c1.656,0,3,1.343,3,3v17c0,1.657-1.344,3-3,3H38c-1.657,0-3-1.343-3-3v-17
		C35,5.843,36.343,4.5,38,4.5z"/>
	<path fill="#CBCED3" d="M69,4.5h19c1.656,0,3,1.343,3,3v17c0,1.657-1.344,3-3,3H69c-1.656,0-3-1.343-3-3v-17
		C66,5.843,67.344,4.5,69,4.5z"/>
	<path fill="#CBCED3" d="M7,33.5h19c1.657,0,3,1.343,3,3v17c0,1.656-1.343,3-3,3H7c-1.657,0-3-1.344-3-3v-17
		C4,34.843,5.343,33.5,7,33.5z"/>
	<path fill="#CBCED3" d="M38,33.5h19c1.656,0,3,1.343,3,3v17c0,1.656-1.344,3-3,3H38c-1.657,0-3-1.344-3-3v-17
		C35,34.843,36.343,33.5,38,33.5z"/>
	<path fill="#CBCED3" d="M69,33.5h19c1.656,0,3,1.343,3,3v17c0,1.656-1.344,3-3,3H69c-1.656,0-3-1.344-3-3v-17
		C66,34.843,67.344,33.5,69,33.5z"/>
	<path fill="#CBCED3" d="M7,63.5h19c1.657,0,3,1.344,3,3v17c0,1.656-1.343,3-3,3H7c-1.657,0-3-1.344-3-3v-17
		C4,64.844,5.343,63.5,7,63.5z"/>
	<path fill="#CBCED3" d="M38,63.5h19c1.656,0,3,1.344,3,3v17c0,1.656-1.344,3-3,3H38c-1.657,0-3-1.344-3-3v-17
		C35,64.844,36.343,63.5,38,63.5z"/>
	<path fill="#CBCED3" d="M69,63.5h19c1.656,0,3,1.344,3,3v17c0,1.656-1.344,3-3,3H69c-1.656,0-3-1.344-3-3v-17
		C66,64.844,67.344,63.5,69,63.5z"/>
</g>
<g>
	<path fill="#CBCED3" d="M30,31.5c1.657,0,3-1.343,3-3v-4v-13c0-1.305-0.837-2.403-2-2.816V24.5c0,2.757-2.243,5-5,5H8.184
		c0.413,1.163,1.512,2,2.816,2h15H30z"/>
	<path fill="#CBCED3" d="M57,29.5H39.184c0.413,1.163,1.512,2,2.816,2h15h4c1.656,0,3-1.343,3-3v-4v-13c0-1.305-0.838-2.403-2-2.816
		V24.5C62,27.257,59.757,29.5,57,29.5z"/>
	<path fill="#CBCED3" d="M95,28.5v-17c0-1.305-0.838-2.403-2-2.816V24.5c0,2.757-2.243,5-5,5H70.184c0.413,1.163,1.513,2,2.816,2h15
		h4C93.656,31.5,95,30.157,95,28.5z"/>
	<path fill="#CBCED3" d="M31,37.684V53.5c0,2.757-2.243,5-5,5H8.184c0.414,1.162,1.512,2,2.816,2h19c1.657,0,3-1.344,3-3v-4v-13
		C33,39.195,32.163,38.097,31,37.684z"/>
	<path fill="#CBCED3" d="M62,37.684V53.5c0,2.757-2.243,5-5,5H39.184c0.414,1.162,1.512,2,2.816,2h19c1.656,0,3-1.344,3-3v-4v-13
		C64,39.195,63.162,38.097,62,37.684z"/>
	<path fill="#CBCED3" d="M88,58.5H70.184c0.414,1.162,1.513,2,2.816,2h19c1.656,0,3-1.344,3-3v-17c0-1.305-0.838-2.403-2-2.816V53.5
		C93,56.257,90.757,58.5,88,58.5z"/>
	<path fill="#CBCED3" d="M31,67.684V83.5c0,2.757-2.243,5-5,5H8.184c0.414,1.162,1.512,2,2.816,2h19c1.657,0,3-1.344,3-3v-4v-13
		C33,69.196,32.163,68.097,31,67.684z"/>
	<path fill="#CBCED3" d="M62,67.684V83.5c0,2.757-2.243,5-5,5H39.184c0.414,1.162,1.512,2,2.816,2h19c1.656,0,3-1.344,3-3v-4v-13
		C64,69.196,63.162,68.098,62,67.684z"/>
	<path fill="#CBCED3" d="M93,67.684V83.5c0,2.757-2.243,5-5,5H70.184c0.414,1.162,1.513,2,2.816,2h19c1.656,0,3-1.344,3-3v-17
		C95,69.196,94.162,68.098,93,67.684z"/>
</g>
</svg>
