<?xml version="1.0" encoding="utf-8"?>
<!-- Generator: Adobe Illustrator 16.0.4, SVG Export Plug-In . SVG Version: 6.00 Build 0)  -->
<!DOCTYPE svg PUBLIC "-//W3C//DTD SVG 1.1//EN" "http://www.w3.org/Graphics/SVG/1.1/DTD/svg11.dtd">
<svg version="1.1" id="Layer_1" xmlns="http://www.w3.org/2000/svg" xmlns:xlink="http://www.w3.org/1999/xlink" x="0px" y="0px"
	 width="99px" height="95px" viewBox="0 0 99 95" enable-background="new 0 0 99 95" xml:space="preserve">
<path fill="#EFF1F4" d="M99,89c0,3.312-2.688,6-6,6H6c-3.313,0-6-2.688-6-6V6c0-3.313,2.687-6,6-6h87c3.312,0,6,2.687,6,6V89z"/>
<g>
	<path fill="#CBCED3" d="M15.802,36.649h17.102c1.492,0,2.701,1.208,2.701,2.7V54.65c0,1.491-1.209,2.701-2.701,2.701H15.802
		c-1.491,0-2.7-1.21-2.7-2.701V39.349C13.102,37.857,14.311,36.649,15.802,36.649z"/>
	<path fill="#CBCED3" d="M40.668,36.649h17.103c1.49,0,2.699,1.208,2.699,2.7V54.65c0,1.491-1.209,2.701-2.699,2.701H40.668
		c-1.492,0-2.701-1.21-2.701-2.701V39.349C37.967,37.857,39.176,36.649,40.668,36.649z"/>
	<path fill="#CBCED3" d="M66.096,36.649h17.103c1.49,0,2.7,1.208,2.7,2.7V54.65c0,1.491-1.21,2.701-2.7,2.701H66.096
		c-1.491,0-2.7-1.21-2.7-2.701V39.349C63.396,37.857,64.604,36.649,66.096,36.649z"/>
</g>
<polygon fill="#CBCED3" points="9.808,43.818 8.216,42.227 3.443,47 3.443,47 3.443,47 8.216,51.773 9.808,50.182 6.626,47 "/>
<polygon fill="#CBCED3" points="89.318,50.182 90.91,51.773 95.683,47 95.683,47 95.683,47 90.91,42.227 89.318,43.819 92.5,47 "/>
</svg>
